<svg width="101" height="100" viewBox="0 0 101 100" fill="none" xmlns="http://www.w3.org/2000/svg">
<path d="M28.1517 58.3334H17.0267C12.4434 58.3334 8.69336 62.0834 8.69336 66.6667V87.5C8.69336 89.7917 10.5684 91.6667 12.86 91.6667H28.1517C30.4434 91.6667 32.3184 89.7917 32.3184 87.5V62.5C32.3184 60.2084 30.4434 58.3334 28.1517 58.3334Z" fill="#5C84CC"/>
<path d="M55.9017 41.6666H44.7767C40.1934 41.6666 36.4434 45.4166 36.4434 50V87.5C36.4434 89.7916 38.3184 91.6666 40.61 91.6666H60.0684C62.36 91.6666 64.235 89.7916 64.235 87.5V50C64.235 45.4166 60.5267 41.6666 55.9017 41.6666Z" fill="#5C84CC"/>
<path d="M83.6921 70.8334H72.5671C70.2754 70.8334 68.4004 72.7084 68.4004 75V87.5C68.4004 89.7917 70.2754 91.6667 72.5671 91.6667H87.8587C90.1504 91.6667 92.0254 89.7917 92.0254 87.5V79.1667C92.0254 74.5834 88.2754 70.8334 83.6921 70.8334Z" fill="#5C84CC"/>
<path d="M62.9027 20.2083C64.1943 18.9166 64.6943 17.375 64.2777 16.0416C63.861 14.7083 62.5693 13.75 60.736 13.4583L56.736 12.7916C56.5693 12.7916 56.1943 12.5 56.111 12.3333L53.9027 7.91663C52.236 4.54163 48.4443 4.54163 46.7777 7.91663L44.5693 12.3333C44.5277 12.5 44.1527 12.7916 43.986 12.7916L39.986 13.4583C38.1527 13.75 36.9027 14.7083 36.4443 16.0416C36.0277 17.375 36.5277 18.9166 37.8193 20.2083L40.9027 23.3333C41.0693 23.4583 41.1943 23.9583 41.1527 24.125L40.2777 27.9583C39.611 30.8333 40.6943 32.125 41.4027 32.625C42.111 33.125 43.6527 33.7916 46.1943 32.2916L49.9443 30.0833C50.111 29.9583 50.6527 29.9583 50.8193 30.0833L54.5277 32.2916C55.6943 33 56.6527 33.2083 57.4027 33.2083C58.2777 33.2083 58.9027 32.875 59.2777 32.625C59.986 32.125 61.0693 30.8333 60.4027 27.9583L59.5277 24.125C59.486 23.9166 59.611 23.4583 59.7777 23.3333L62.9027 20.2083Z" fill="#5C84CC"/>
</svg>
