<svg width="100" height="100" viewBox="0 0 100 100" fill="none" xmlns="http://www.w3.org/2000/svg">
<path d="M37.5007 8.33337C26.584 8.33337 17.709 17.2084 17.709 28.125C17.709 38.8334 26.084 47.5 37.0007 47.875C37.334 47.8334 37.6673 47.8334 37.9173 47.875C38.0007 47.875 38.0423 47.875 38.1257 47.875C38.1673 47.875 38.1673 47.875 38.209 47.875C48.8757 47.5 57.2507 38.8334 57.2923 28.125C57.2923 17.2084 48.4173 8.33337 37.5007 8.33337Z" fill="#5C84CC"/>
<path d="M58.666 58.9579C47.041 51.2079 28.0827 51.2079 16.3744 58.9579C11.0827 62.4996 8.16602 67.2912 8.16602 72.4162C8.16602 77.5412 11.0827 82.2912 16.3327 85.7912C22.166 89.7079 29.8327 91.6662 37.4994 91.6662C45.166 91.6662 52.8327 89.7079 58.666 85.7912C63.916 82.2496 66.8327 77.4996 66.8327 72.3329C66.791 67.2079 63.916 62.4579 58.666 58.9579Z" fill="#5C84CC"/>
<path d="M83.293 30.5837C83.9596 38.667 78.2096 45.7503 70.2513 46.7087C70.2096 46.7087 70.2096 46.7087 70.168 46.7087H70.043C69.793 46.7087 69.543 46.7087 69.3346 46.792C65.293 47.0003 61.5846 45.7087 58.793 43.3337C63.0846 39.5003 65.543 33.7503 65.043 27.5003C64.7513 24.1253 63.5846 21.042 61.8346 18.417C63.418 17.6253 65.2513 17.1253 67.1263 16.9587C75.293 16.2503 82.5846 22.3337 83.293 30.5837Z" fill="#5C84CC"/>
<path d="M91.6263 69.1246C91.293 73.1663 88.7096 76.6663 84.3763 79.0413C80.2096 81.3329 74.9596 82.4163 69.7513 82.2913C72.7513 79.5829 74.5013 76.2079 74.8346 72.6246C75.2513 67.4579 72.793 62.4996 67.8763 58.5413C65.0846 56.333 61.8346 54.5829 58.293 53.2913C67.5013 50.6246 79.0846 52.4163 86.2096 58.1663C90.043 61.2496 92.0013 65.1246 91.6263 69.1246Z" fill="#5C84CC"/>
</svg>
