<svg width="101" height="100" viewBox="0 0 101 100" fill="none" xmlns="http://www.w3.org/2000/svg">
<path d="M32.3731 87.1244C32.2481 87.1244 32.0814 87.2078 31.9564 87.2078C23.873 83.2078 17.2897 76.5828 13.248 68.4994C13.248 68.3744 13.3314 68.2078 13.3314 68.0828C18.4147 69.5828 23.6647 70.7078 28.873 71.5828C29.7897 76.8328 30.8731 82.0411 32.3731 87.1244Z" fill="#5C84CC"/>
<path d="M87.75 68.5411C83.625 76.8328 76.75 83.5411 68.375 87.5828C69.9583 82.2911 71.2917 76.9578 72.1667 71.5828C77.4167 70.7078 82.5833 69.5828 87.6667 68.0828C87.625 68.2494 87.75 68.4161 87.75 68.5411Z" fill="#5C84CC"/>
<path d="M88.0833 32.1248C82.8333 30.5415 77.5417 29.2498 72.1667 28.3332C71.2917 22.9582 70 17.6248 68.375 12.4165C77 16.5415 83.9583 23.4998 88.0833 32.1248Z" fill="#5C84CC"/>
<path d="M32.3763 12.8752C30.8763 17.9586 29.793 23.1252 28.918 28.3752C23.543 29.2086 18.2096 30.5419 12.918 32.1253C16.9596 23.7502 23.668 16.8752 31.9596 12.7502C32.0846 12.7502 32.2513 12.8752 32.3763 12.8752Z" fill="#5C84CC"/>
<path d="M65.0404 27.4583C55.3737 26.3749 45.6237 26.3749 35.957 27.4583C36.9987 21.7499 38.332 16.0416 40.207 10.5416C40.2904 10.2083 40.2487 9.95825 40.2904 9.62492C43.582 8.83325 46.957 8.33325 50.4987 8.33325C53.9987 8.33325 57.4154 8.83325 60.6654 9.62492C60.707 9.95825 60.707 10.2083 60.7904 10.5416C62.6654 16.0833 63.9987 21.7499 65.0404 27.4583Z" fill="#5C84CC"/>
<path d="M27.959 64.5409C22.209 63.4992 16.5423 62.1659 11.0423 60.2909C10.709 60.2075 10.459 60.2492 10.1257 60.2075C9.33398 56.9159 8.83398 53.5409 8.83398 49.9992C8.83398 46.4992 9.33398 43.0825 10.1257 39.8325C10.459 39.7909 10.709 39.7909 11.0423 39.7075C16.584 37.8742 22.209 36.4992 27.959 35.4575C26.9173 45.1242 26.9173 54.8742 27.959 64.5409Z" fill="#5C84CC"/>
<path d="M92.168 49.9992C92.168 53.5409 91.668 56.9159 90.8763 60.2075C90.543 60.2492 90.293 60.2075 89.9596 60.2909C84.418 62.1242 78.7513 63.4992 73.043 64.5409C74.1263 54.8742 74.1263 45.1242 73.043 35.4575C78.7513 36.4992 84.4596 37.8325 89.9596 39.7075C90.293 39.7909 90.543 39.8325 90.8763 39.8325C91.668 43.1242 92.168 46.4992 92.168 49.9992Z" fill="#5C84CC"/>
<path d="M65.0404 72.5422C63.9987 78.2922 62.6654 83.9589 60.7904 89.4589C60.707 89.7922 60.707 90.0422 60.6654 90.3756C57.4154 91.1672 53.9987 91.6672 50.4987 91.6672C46.957 91.6672 43.582 91.1672 40.2904 90.3756C40.2487 90.0422 40.2904 89.7922 40.207 89.4589C38.3737 83.9172 36.9987 78.2922 35.957 72.5422C40.7904 73.0839 45.6237 73.4589 50.4987 73.4589C55.3737 73.4589 60.2487 73.0839 65.0404 72.5422Z" fill="#5C84CC"/>
<path d="M66.1812 65.6806C55.76 66.9954 45.2413 66.9954 34.8201 65.6806C33.5053 55.2594 33.5053 44.7407 34.8201 34.3195C45.2413 33.0047 55.76 33.0047 66.1812 34.3195C67.496 44.7407 67.496 55.2594 66.1812 65.6806Z" fill="#5C84CC"/>
</svg>
