<svg width="101" height="100" viewBox="0 0 101 100" fill="none" xmlns="http://www.w3.org/2000/svg">
<g clip-path="url(#clip0_1943:107218)">
<path d="M65.084 4.1665H31.7507C28.988 4.1665 26.3385 5.26397 24.385 7.21747C22.4315 9.17098 21.334 11.8205 21.334 14.5832V85.4165C21.334 88.1792 22.4315 90.8287 24.385 92.7822C26.3385 94.7357 28.988 95.8332 31.7507 95.8332H65.084C67.8467 95.8332 70.4962 94.7357 72.4497 92.7822C74.4032 90.8287 75.5007 88.1792 75.5007 85.4165V14.5832C75.5007 11.8205 74.4032 9.17098 72.4497 7.21747C70.4962 5.26397 67.8467 4.1665 65.084 4.1665ZM48.4173 91.6665C44.959 91.6665 42.1673 88.8748 42.1673 85.4165C42.1673 81.9582 44.959 79.1665 48.4173 79.1665C51.8757 79.1665 54.6673 81.9582 54.6673 85.4165C54.6673 88.8748 51.8757 91.6665 48.4173 91.6665ZM67.1673 74.9998H29.6673V16.6665H67.1673V74.9998Z" fill="#5C84CC"/>
</g>
<defs>
<clipPath id="clip0_1943:107218">
<rect width="100" height="100" fill="white" transform="translate(0.5)"/>
</clipPath>
</defs>
</svg>
