<svg width="101" height="100" viewBox="0 0 101 100" fill="none" xmlns="http://www.w3.org/2000/svg">
<path d="M87.4844 46.3326V28.041C87.4844 24.6243 84.901 20.7493 81.6927 19.4576L58.4844 9.95764C53.276 7.83264 47.401 7.83264 42.1927 9.95764L18.9844 19.4576C15.8177 20.7493 13.2344 24.6243 13.2344 28.041V46.3326C13.2344 66.7076 28.026 85.791 48.2344 91.3743C49.6094 91.7493 51.1094 91.7493 52.4844 91.3743C72.6927 85.791 87.4844 66.7076 87.4844 46.3326ZM53.4844 53.6243V64.5826C53.4844 66.291 52.0677 67.7076 50.3594 67.7076C48.651 67.7076 47.2344 66.291 47.2344 64.5826V53.6243C43.026 52.291 39.9427 48.3743 39.9427 43.7493C39.9427 37.9993 44.6094 33.3326 50.3594 33.3326C56.1094 33.3326 60.776 37.9993 60.776 43.7493C60.776 48.416 57.6927 52.291 53.4844 53.6243Z" fill="#5C84CC"/>
<rect x="25.5586" y="31.7991" width="42.5987" height="36.5989" fill="#5C84CC"/>
<g clip-path="url(#clip0_1947:107864)">
<path d="M68.1576 38.3988C68.0919 40.6737 67.2443 42.6424 65.6147 44.3048C63.985 45.9673 62.0327 46.7985 59.7578 46.7985C59.1235 46.7985 58.4672 46.711 57.7891 46.536C57.9641 47.2141 58.3305 47.7774 58.8883 48.2258C59.4461 48.6742 60.0859 48.8984 60.8078 48.8984L63.9577 52.0483L66.6482 54.8373C67.6544 55.8435 68.1576 57.0521 68.1576 58.463C68.1576 59.8739 67.6544 61.077 66.6482 62.0722C65.642 63.0675 64.4334 63.5652 63.0226 63.5652C61.6117 63.5652 60.4031 63.073 59.3969 62.0887L56.6079 59.3981L53.458 56.2482C53.458 55.3732 53.1518 54.6295 52.5393 54.017C51.9268 53.4045 51.1831 53.0983 50.3081 53.0983L50.0784 52.8686V52.8358L41.974 63.3027C41.7552 63.4995 40.8092 63.598 39.1358 63.598C37.4624 63.598 36.5273 63.4995 36.3304 63.3027L34.8539 61.859C34.657 61.6402 34.5586 60.6942 34.5586 59.0208C34.5586 57.3474 34.657 56.4013 34.8539 56.1826L48.6347 45.5189L41.5474 38.3988H37.7085L34.5586 32.099L36.6585 29.999L42.9583 33.1489V36.9551L50.2425 44.272L52.408 42.5986C52.408 42.5768 52.419 42.5658 52.4409 42.5658H52.4737C51.7299 41.2534 51.3581 39.8643 51.3581 38.3988C51.3581 36.1238 52.1838 34.1661 53.8353 32.5255C55.4869 30.8849 57.461 30.0428 59.7578 29.999V31.2459L57.0673 33.8052C56.0611 34.8114 55.5579 36.0199 55.5579 37.4308C55.5579 38.8417 56.0611 40.0503 57.0673 41.0565C58.0735 42.0627 59.2875 42.5658 60.7093 42.5658C62.1312 42.5658 63.3452 42.0627 64.3514 41.0565L66.8779 38.3988H68.1576ZM38.7585 57.2982C38.1679 57.2982 37.6702 57.5005 37.2655 57.9052C36.8609 58.3099 36.6585 58.802 36.6585 59.3817C36.6585 59.9614 36.8609 60.459 37.2655 60.8746C37.6702 61.2902 38.1679 61.498 38.7585 61.498C39.3491 61.498 39.8467 61.2902 40.2514 60.8746C40.6561 60.459 40.8584 59.9614 40.8584 59.3817C40.8584 58.802 40.6561 58.3099 40.2514 57.9052C39.8467 57.5005 39.3491 57.2982 38.7585 57.2982Z" fill="white"/>
</g>
<defs>
<clipPath id="clip0_1947:107864">
<rect width="33.599" height="33.599" fill="white" transform="translate(34.5586 29.999)"/>
</clipPath>
</defs>
</svg>
