<svg width="101" height="100" viewBox="0 0 101 100" fill="none" xmlns="http://www.w3.org/2000/svg">
<path d="M92.9133 72.8731C90.6133 77.9654 89.5133 80.2424 86.5595 84.7424C82.4326 91.027 76.6056 98.8693 69.4018 98.9231C62.9941 98.977 61.3403 94.7423 52.6441 94.8116C43.948 94.8539 42.1364 99 35.721 98.9347C28.5172 98.8693 23.0018 91.8039 18.871 85.5308C7.32103 67.9347 6.1018 47.3116 13.2403 36.3385C18.2903 28.5577 26.2826 23.9885 33.7864 23.9885C41.4287 23.9885 46.2326 28.1885 52.5518 28.1885C58.6826 28.1885 62.4172 23.977 71.2556 23.977C77.9403 23.977 85.0095 27.6193 90.0595 33.9039C73.5364 42.9577 76.221 66.5577 92.9133 72.8731ZM64.548 16.9539C67.7633 12.827 70.2018 7.00389 69.3172 1.06543C64.071 1.42312 57.9364 4.77312 54.3518 9.11158C51.1056 13.0616 48.4133 18.9308 49.4633 24.6077C55.1864 24.7924 61.1095 21.3808 64.548 16.9539Z" fill="#5C84CC"/>
</svg>
