<svg width="178" height="44" viewBox="0 0 178 44" fill="none" xmlns="http://www.w3.org/2000/svg">
<rect opacity="0.05" x="0.819336" y="0.000244141" width="177.181" height="43.3765" rx="6" fill="#366DFF"/>
<path d="M31.5082 19.2354C31.1033 15.876 28.5607 13.9442 25.1942 13.9442C21.3519 13.9442 18.4187 16.6572 18.4187 21.4157C18.4187 26.1601 21.3022 28.8873 25.1942 28.8873C28.9229 28.8873 31.1744 26.4086 31.5082 23.7311L28.3974 23.7169C28.1062 25.2723 26.8846 26.1672 25.244 26.1672C23.0352 26.1672 21.5366 24.5265 21.5366 21.4157C21.5366 18.3902 23.0138 16.6643 25.2653 16.6643C26.9485 16.6643 28.163 17.6373 28.3974 19.2354H31.5082ZM36.7674 28.8944C38.3796 28.8944 39.4237 28.1913 39.9563 27.1757H40.0415V28.6885H42.9109V21.3305C42.9109 18.7311 40.7092 17.6373 38.2802 17.6373C35.6665 17.6373 33.9478 18.8873 33.5288 20.876L36.3271 21.1032C36.533 20.3788 37.1793 19.8461 38.266 19.8461C39.2958 19.8461 39.8853 20.3646 39.8853 21.2595V21.3021C39.8853 22.0052 39.1396 22.0976 37.2433 22.2822C35.0842 22.4811 33.1452 23.2055 33.1452 25.6416C33.1452 27.8007 34.6864 28.8944 36.7674 28.8944ZM37.6339 26.8064C36.7035 26.8064 36.0359 26.3731 36.0359 25.5422C36.0359 24.6899 36.739 24.2709 37.8043 24.1217C38.4648 24.0294 39.5444 23.8731 39.9066 23.6317V24.7893C39.9066 25.9328 38.962 26.8064 37.6339 26.8064ZM48.2837 22.3817C48.2908 20.9754 49.1289 20.1515 50.3505 20.1515C51.565 20.1515 52.2965 20.947 52.2894 22.2822V28.6885H55.315V21.7425C55.315 19.1998 53.8235 17.6373 51.5508 17.6373C49.9315 17.6373 48.7596 18.4328 48.2695 19.7041H48.1417V17.7794H45.2582V28.6885H48.2837V22.3817ZM62.3285 28.6885H65.354V17.7794H62.3285V28.6885ZM63.8484 16.3731C64.7504 16.3731 65.489 15.6842 65.489 14.839C65.489 14.001 64.7504 13.3121 63.8484 13.3121C62.9535 13.3121 62.2148 14.001 62.2148 14.839C62.2148 15.6842 62.9535 16.3731 63.8484 16.3731ZM75.4322 22.3817C75.4393 20.9754 76.2987 20.1515 77.5344 20.1515C78.7631 20.1515 79.4876 20.9399 79.4805 22.2822V28.6885H82.506V21.7425C82.5131 19.1856 81.0075 17.6373 78.7347 17.6373C77.0799 17.6373 75.9719 18.4186 75.4748 19.7041H75.3469V14.143H72.4066V28.6885H75.4322V22.3817ZM89.8587 28.9015C92.5575 28.9015 94.3757 27.5876 94.8018 25.5635L92.0036 25.3788C91.6982 26.2098 90.9169 26.643 89.9084 26.643C88.3956 26.643 87.4368 25.6416 87.4368 24.0152V24.0081H94.8658V23.1771C94.8658 19.4697 92.6214 17.6373 89.7379 17.6373C86.5277 17.6373 84.4467 19.9172 84.4467 23.2836C84.4467 26.7425 86.4993 28.9015 89.8587 28.9015ZM87.4368 22.1331C87.5007 20.8902 88.4453 19.8959 89.7876 19.8959C91.1016 19.8959 92.0107 20.8334 92.0178 22.1331H87.4368ZM99.8658 14.143H96.8402V28.6885H99.8658V14.143ZM102.289 32.7794H105.315V26.9413H105.407C105.826 27.8504 106.743 28.866 108.504 28.866C110.99 28.866 112.929 26.8987 112.929 23.2481C112.929 19.4981 110.904 17.6373 108.511 17.6373C106.686 17.6373 105.812 18.724 105.407 19.6118H105.272V17.7794H102.289V32.7794ZM105.251 23.2339C105.251 21.2879 106.075 20.045 107.545 20.045C109.044 20.045 109.839 21.3447 109.839 23.2339C109.839 25.1373 109.029 26.4584 107.545 26.4584C106.089 26.4584 105.251 25.18 105.251 23.2339ZM121.442 32.7794C123.694 32.7794 124.887 31.6288 125.505 29.8675L129.745 17.7936L126.542 17.7794L124.262 25.7907H124.148L121.89 17.7794H118.708L122.621 29.001L122.444 29.4626C122.046 30.4854 121.286 30.5351 120.221 30.2084L119.539 32.4669C119.972 32.6515 120.675 32.7794 121.442 32.7794ZM135.851 28.9015C139.161 28.9015 141.221 26.6359 141.221 23.2765C141.221 19.8959 139.161 17.6373 135.851 17.6373C132.542 17.6373 130.482 19.8959 130.482 23.2765C130.482 26.6359 132.542 28.9015 135.851 28.9015ZM135.865 26.5578C134.338 26.5578 133.557 25.1586 133.557 23.2552C133.557 21.3518 134.338 19.9456 135.865 19.9456C137.364 19.9456 138.145 21.3518 138.145 23.2552C138.145 25.1586 137.364 26.5578 135.865 26.5578ZM150.184 24.0436C150.191 25.5067 149.189 26.2737 148.103 26.2737C146.959 26.2737 146.221 25.4711 146.213 24.1856V17.7794H143.188V24.7254C143.195 27.2751 144.686 28.8305 146.881 28.8305C148.522 28.8305 149.701 27.9854 150.191 26.7069H150.304V28.6885H153.209V17.7794H150.184V24.0436ZM158.229 24.3277H160.92V24.0862C160.935 22.7013 161.432 22.055 162.554 21.3802C163.882 20.5919 164.749 19.5479 164.749 17.8788C164.749 15.393 162.746 13.9442 159.926 13.9442C157.348 13.9442 155.246 15.2936 155.182 18.1345H158.08C158.122 16.9768 158.982 16.3589 159.912 16.3589C160.871 16.3589 161.645 16.9981 161.645 17.9854C161.645 18.9157 160.97 19.5336 160.097 20.0876C158.903 20.8405 158.236 21.6004 158.229 24.0862V24.3277ZM159.628 28.8731C160.537 28.8731 161.325 28.1132 161.332 27.1686C161.325 26.2382 160.537 25.4782 159.628 25.4782C158.69 25.4782 157.916 26.2382 157.923 27.1686C157.916 28.1132 158.69 28.8731 159.628 28.8731Z" fill="#366DFF"/>
</svg>
