<svg width="309" height="111" viewBox="0 0 309 111" fill="none" xmlns="http://www.w3.org/2000/svg">
<g filter="url(#filter0_d)">
<rect x="36.4824" y="33.4385" width="236.447" height="38.5" rx="6" fill="white"/>
</g>
<path d="M53.3042 45.143V59.6885H56.2872V50.1856H56.4079L60.1721 59.6175H62.2034L65.9676 50.2211H66.0883V59.6885H69.0713V45.143H65.2787L61.273 54.9157H61.1025L57.0969 45.143H53.3042ZM73.4161 63.7794C75.6675 63.7794 76.8607 62.6288 77.4786 60.8675L81.7187 48.7936L78.5155 48.7794L76.2357 56.7907H76.1221L73.8635 48.7794H70.6817L74.5951 60.001L74.4175 60.4626C74.0198 61.4854 73.2599 61.5351 72.1945 61.2084L71.5127 63.4669C71.9459 63.6515 72.6491 63.7794 73.4161 63.7794ZM90.9214 53.3817C90.9285 51.9754 91.7666 51.1515 92.9882 51.1515C94.2027 51.1515 94.9342 51.947 94.9271 53.2822V59.6885H97.9527V52.7425C97.9527 50.1998 96.4612 48.6373 94.1885 48.6373C92.5692 48.6373 91.3973 49.4328 90.9072 50.7041H90.7794V48.7794H87.8959V59.6885H90.9214V53.3817ZM103.448 59.8944C105.06 59.8944 106.104 59.1913 106.637 58.1757H106.722V59.6885H109.592V52.3305C109.592 49.7311 107.39 48.6373 104.961 48.6373C102.347 48.6373 100.628 49.8873 100.209 51.876L103.008 52.1032C103.214 51.3788 103.86 50.8461 104.947 50.8461C105.976 50.8461 106.566 51.3646 106.566 52.2595V52.3021C106.566 53.0052 105.82 53.0976 103.924 53.2822C101.765 53.4811 99.8259 54.2055 99.8259 56.6416C99.8259 58.8007 101.367 59.8944 103.448 59.8944ZM104.315 57.8064C103.384 57.8064 102.717 57.3731 102.717 56.5422C102.717 55.6899 103.42 55.2709 104.485 55.1217C105.146 55.0294 106.225 54.8731 106.587 54.6317V55.7893C106.587 56.9328 105.643 57.8064 104.315 57.8064ZM111.939 59.6885H114.964V53.1402C114.964 51.9328 115.731 51.1302 116.74 51.1302C117.734 51.1302 118.402 51.8121 118.402 52.8845V59.6885H121.335V53.0265C121.335 51.8973 121.981 51.1302 123.082 51.1302C124.048 51.1302 124.773 51.7339 124.773 52.9484V59.6885H127.791V52.3518C127.791 49.9868 126.385 48.6373 124.354 48.6373C122.756 48.6373 121.513 49.4541 121.065 50.7041H120.952C120.604 49.4399 119.489 48.6373 117.99 48.6373C116.52 48.6373 115.405 49.4186 114.95 50.7041H114.822V48.7794H111.939V59.6885ZM135.153 59.9015C137.851 59.9015 139.67 58.5876 140.096 56.5635L137.297 56.3788C136.992 57.2098 136.211 57.643 135.202 57.643C133.69 57.643 132.731 56.6416 132.731 55.0152V55.0081H140.16V54.1771C140.16 50.4697 137.915 48.6373 135.032 48.6373C131.822 48.6373 129.741 50.9172 129.741 54.2836C129.741 57.7425 131.793 59.9015 135.153 59.9015ZM132.731 53.1331C132.795 51.8902 133.739 50.8959 135.082 50.8959C136.396 50.8959 137.305 51.8334 137.312 53.1331H132.731ZM146.763 59.6885H149.789V48.7794H146.763V59.6885ZM148.283 47.3731C149.185 47.3731 149.924 46.6842 149.924 45.839C149.924 45.001 149.185 44.3121 148.283 44.3121C147.388 44.3121 146.649 45.001 146.649 45.839C146.649 46.6842 147.388 47.3731 148.283 47.3731ZM161.289 51.8902C161.019 49.8802 159.4 48.6373 156.644 48.6373C153.853 48.6373 152.013 49.93 152.021 52.0322C152.013 53.6657 153.043 54.724 155.174 55.1501L157.063 55.5265C158.015 55.7183 158.448 56.0663 158.462 56.6132C158.448 57.2595 157.745 57.7211 156.687 57.7211C155.607 57.7211 154.89 57.2595 154.705 56.3717L151.729 56.528C152.013 58.616 153.789 59.9015 156.68 59.9015C159.506 59.9015 161.53 58.4598 161.538 56.3078C161.53 54.7311 160.501 53.7865 158.384 53.3532L156.41 52.9555C155.394 52.7354 155.018 52.3873 155.025 51.8618C155.018 51.2084 155.756 50.7822 156.694 50.7822C157.745 50.7822 158.37 51.3575 158.519 52.0606L161.289 51.8902ZM168.128 45.143V59.6885H171.111V50.1856H171.232L174.996 59.6175H177.028L180.792 50.2211H180.913V59.6885H183.896V45.143H180.103L176.097 54.9157H175.927L171.921 45.143H168.128ZM191.301 59.9015C194.611 59.9015 196.671 57.6359 196.671 54.2765C196.671 50.8959 194.611 48.6373 191.301 48.6373C187.992 48.6373 185.932 50.8959 185.932 54.2765C185.932 57.6359 187.992 59.9015 191.301 59.9015ZM191.316 57.5578C189.789 57.5578 189.007 56.1586 189.007 54.2552C189.007 52.3518 189.789 50.9456 191.316 50.9456C192.814 50.9456 193.595 52.3518 193.595 54.2552C193.595 56.1586 192.814 57.5578 191.316 57.5578ZM198.695 59.6885H201.678V57.9413H201.813C202.232 58.8504 203.148 59.866 204.909 59.866C207.395 59.866 209.334 57.8987 209.334 54.2481C209.334 50.4981 207.31 48.6373 204.916 48.6373C203.091 48.6373 202.218 49.724 201.813 50.6118H201.72V45.143H198.695V59.6885ZM201.657 54.2339C201.657 52.2879 202.48 51.045 203.951 51.045C205.449 51.045 206.245 52.3447 206.245 54.2339C206.245 56.1373 205.435 57.4584 203.951 57.4584C202.495 57.4584 201.657 56.18 201.657 54.2339ZM211.353 59.6885H214.378V48.7794H211.353V59.6885ZM212.873 47.3731C213.775 47.3731 214.513 46.6842 214.513 45.839C214.513 45.001 213.775 44.3121 212.873 44.3121C211.978 44.3121 211.239 45.001 211.239 45.839C211.239 46.6842 211.978 47.3731 212.873 47.3731ZM216.802 63.7794H219.828V57.9413H219.92C220.339 58.8504 221.255 59.866 223.017 59.866C225.502 59.866 227.441 57.8987 227.441 54.2481C227.441 50.4981 225.417 48.6373 223.024 48.6373C221.198 48.6373 220.325 49.724 219.92 50.6118H219.785V48.7794H216.802V63.7794ZM219.764 54.2339C219.764 52.2879 220.588 51.045 222.058 51.045C223.556 51.045 224.352 52.3447 224.352 54.2339C224.352 56.1373 223.542 57.4584 222.058 57.4584C220.602 57.4584 219.764 56.18 219.764 54.2339ZM232.484 45.143H229.458V59.6885H232.484V45.143ZM241.903 55.0436C241.91 56.5067 240.909 57.2737 239.822 57.2737C238.679 57.2737 237.94 56.4711 237.933 55.1856V48.7794H234.908V55.7254C234.915 58.2751 236.406 59.8305 238.601 59.8305C240.241 59.8305 241.42 58.9854 241.91 57.7069H242.024V59.6885H244.929V48.7794H241.903V55.0436ZM256.426 51.8902C256.156 49.8802 254.536 48.6373 251.781 48.6373C248.99 48.6373 247.15 49.93 247.157 52.0322C247.15 53.6657 248.18 54.724 250.311 55.1501L252.2 55.5265C253.152 55.7183 253.585 56.0663 253.599 56.6132C253.585 57.2595 252.882 57.7211 251.823 57.7211C250.744 57.7211 250.027 57.2595 249.842 56.3717L246.866 56.528C247.15 58.616 248.926 59.9015 251.816 59.9015C254.643 59.9015 256.667 58.4598 256.674 56.3078C256.667 54.7311 255.637 53.7865 253.521 53.3532L251.546 52.9555C250.531 52.7354 250.154 52.3873 250.161 51.8618C250.154 51.2084 250.893 50.7822 251.831 50.7822C252.882 50.7822 253.507 51.3575 253.656 52.0606L256.426 51.8902Z" fill="#FF5584"/>
<defs>
<filter id="filter0_d" x="0.482422" y="0.438477" width="308.447" height="110.5" filterUnits="userSpaceOnUse" color-interpolation-filters="sRGB">
<feFlood flood-opacity="0" result="BackgroundImageFix"/>
<feColorMatrix in="SourceAlpha" type="matrix" values="0 0 0 0 0 0 0 0 0 0 0 0 0 0 0 0 0 0 127 0"/>
<feOffset dy="3"/>
<feGaussianBlur stdDeviation="18"/>
<feColorMatrix type="matrix" values="0 0 0 0 0.698039 0 0 0 0 0.709804 0 0 0 0 0.772549 0 0 0 0.2 0"/>
<feBlend mode="normal" in2="BackgroundImageFix" result="effect1_dropShadow"/>
<feBlend mode="normal" in="SourceGraphic" in2="effect1_dropShadow" result="shape"/>
</filter>
</defs>
</svg>
