<svg width="57" height="40" viewBox="0 0 57 40" fill="none" xmlns="http://www.w3.org/2000/svg">
<rect opacity="0.05" x="0.34668" y="0.563721" width="56.5" height="38.5" rx="6" fill="#00C9FB"/>
<path d="M16.9331 26.8137H20.0084V20.8052H26.2513V26.8137H29.3195V12.2683H26.2513V18.2697H20.0084V12.2683H16.9331V26.8137ZM31.7982 26.8137H34.8238V15.9046H31.7982V26.8137ZM33.3181 14.4984C34.2201 14.4984 34.9587 13.8095 34.9587 12.9643C34.9587 12.1262 34.2201 11.4373 33.3181 11.4373C32.4232 11.4373 31.6846 12.1262 31.6846 12.9643C31.6846 13.8095 32.4232 14.4984 33.3181 14.4984ZM40.8625 12.2683H37.702L37.9861 22.4529H40.5855L40.8625 12.2683ZM39.2858 26.9984C40.1949 26.9984 40.9832 26.2384 40.9903 25.2938C40.9832 24.3634 40.1949 23.6035 39.2858 23.6035C38.3483 23.6035 37.5741 24.3634 37.5812 25.2938C37.5741 26.2384 38.3483 26.9984 39.2858 26.9984Z" fill="#00C9FB"/>
</svg>
