<svg width="71" height="112" viewBox="0 0 71 112" fill="none" xmlns="http://www.w3.org/2000/svg">
<path d="M70.6292 0.0548212C70.1178 2.16759 69.5807 4.28551 68.8073 6.32393C68.0326 8.35592 67.0049 10.3251 65.5199 11.9452C64.0361 13.5717 62.1194 14.7375 60.1229 15.6053C58.1135 16.4756 56.0141 17.0969 53.9211 17.6835C49.7249 18.8388 45.4477 19.7565 41.5047 21.5756C39.5416 22.4768 37.6685 23.5936 36.0408 25.0019C34.4054 26.4051 33.054 28.1253 32.1495 30.0764C31.249 32.0135 30.8031 34.1866 31.0481 36.3079C31.2662 38.4281 32.3061 40.4168 33.8581 41.8621C35.3909 43.3112 37.4871 44.24 39.5868 44.0861C40.1056 44.0422 40.6487 43.9867 41.057 43.7579C41.4679 43.542 41.6937 43.1027 41.6999 42.6339C41.7061 42.1652 41.5016 41.712 41.1573 41.3603C40.8142 41.015 40.3595 40.7789 39.8702 40.6366C37.8499 40.12 35.6168 40.4075 33.6253 41.1007C31.6094 41.8054 29.7389 42.9351 28.1292 44.3331C26.5207 45.7375 25.168 47.4513 24.2212 49.3575C23.3026 51.2714 22.7604 53.3971 22.8912 55.5147C23.0129 57.6207 23.7626 59.6944 25.0129 61.4005C26.2402 63.1246 27.99 64.4901 30.0077 65.094C30.5022 65.262 31.0378 65.3349 31.54 65.4079C31.9805 65.4398 32.3977 65.2225 32.576 64.8128C32.771 64.4197 32.7412 63.9048 32.4573 63.5877C32.3224 63.4144 32.1477 63.3092 31.9087 63.2168C31.6686 63.1181 31.4181 63.0347 31.1638 62.9655C29.128 62.4053 26.9219 62.6272 24.8893 63.2485C24.3808 63.4106 23.8775 63.5983 23.3922 63.8091L21.9542 64.5316C21.465 64.7565 21.0388 65.0958 20.5792 65.3682C20.3558 65.5199 20.1209 65.6471 19.9078 65.8168L19.2801 66.3166C17.6048 67.6543 16.1043 69.2307 14.9237 71.0369C12.5484 74.612 11.1121 78.8737 11.1027 83.19C11.0922 85.3359 11.3796 87.5022 12.0818 89.5386C12.7647 91.5789 13.7955 93.5227 15.2526 95.0938C15.9837 95.8756 16.811 96.5712 17.7501 97.0909C18.6672 97.6015 19.7243 98.0107 20.7286 98.1232C21.2243 98.1307 21.6865 97.871 21.9727 97.4664C22.2589 97.0617 22.3511 96.5223 22.243 96.0498C22.1323 95.5644 21.7507 95.1934 21.2794 95.0408C20.7926 94.878 20.2455 94.814 19.7202 94.7925C17.5717 94.7691 15.5483 95.8026 13.8088 97.053C12.0616 98.3316 10.4198 99.7694 8.86022 101.284C5.75391 104.311 3.03948 107.761 0.810617 111.5C2.99323 107.73 5.66783 104.248 8.74844 101.16C10.29 99.6218 11.9138 98.1609 13.6674 96.8475C15.4133 95.5625 17.4573 94.4648 19.7277 94.4637C20.2851 94.4788 20.8373 94.5351 21.3884 94.7184C21.9445 94.8941 22.4404 95.369 22.573 95.9636C22.7094 96.5439 22.5954 97.1746 22.2579 97.6563C21.9217 98.1444 21.3337 98.4761 20.7314 98.4699C18.4697 98.1821 16.4889 96.9631 14.9766 95.3495C13.4694 93.7283 12.4039 91.7447 11.6991 89.6621C10.9751 87.5833 10.671 85.3669 10.6725 83.176C10.6639 78.7699 12.1091 74.4196 14.5191 70.7507C15.7189 68.9073 17.2489 67.2782 18.9627 65.8994L19.6071 65.3828C19.8202 65.2132 20.0667 65.077 20.2952 64.9176C20.7651 64.6297 21.2028 64.2815 21.7035 64.0475L23.1826 63.2968C23.6923 63.0744 24.2072 62.8777 24.7349 62.7118C26.8407 62.0558 29.1406 61.8017 31.3292 62.3914C31.604 62.4632 31.8699 62.5568 32.1306 62.6581C32.3965 62.7517 32.7125 62.9288 32.9117 63.1894C33.3499 63.7093 33.3862 64.4567 33.1078 65.0334C32.8551 65.6384 32.1464 66.0343 31.4991 65.9704C30.9302 65.8975 30.3792 65.8143 29.8372 65.6424C27.6717 65.0014 25.8051 63.5524 24.5007 61.7436C23.1784 59.9451 22.367 57.7636 22.2388 55.5253C22.1093 53.2805 22.6848 51.0547 23.6598 49.056C24.6567 47.0663 26.0672 45.3075 27.7398 43.8568C29.4214 42.4177 31.3459 41.2571 33.4452 40.5357C35.5394 39.8219 37.8226 39.5178 40.0343 40.0894C40.5814 40.2536 41.1299 40.5243 41.5514 40.9607C41.9754 41.3766 42.2595 41.9941 42.2444 42.6183C42.2472 43.2321 41.8982 43.8898 41.3231 44.1854C40.7697 44.4901 40.1893 44.5263 39.6319 44.5779C37.3525 44.7344 35.1394 43.7223 33.5308 42.1948C31.903 40.6713 30.8116 38.5593 30.6 36.3377C30.3549 34.1161 30.8264 31.8711 31.7616 29.8737C32.6955 27.8699 34.1035 26.0983 35.7761 24.681C37.4449 23.2444 39.3565 22.1198 41.353 21.2186C45.3486 19.3957 49.6541 18.4857 53.8439 17.3651C55.9421 16.8042 58.0402 16.2098 60.0367 15.3754C62.0268 14.5423 63.9308 13.4126 65.4094 11.8271C66.8958 10.2468 67.9479 8.29946 68.7392 6.28415C69.5306 4.26884 70.0895 2.1599 70.6292 0.0548212Z" fill="#C6C9DA"/>
</svg>
