<svg width="160" height="42" viewBox="0 0 160 42" fill="none" xmlns="http://www.w3.org/2000/svg">
<path d="M0.912646 0.405186C3.61835 0.21355 6.33991 0.0505083 9.05638 0.198563C11.7657 0.350579 14.4961 0.827217 16.9846 1.97978C19.4802 3.12838 21.5917 4.96626 23.3792 7.01173C25.1747 9.0715 26.708 11.3326 28.1977 13.5992C31.1596 18.1514 33.8697 22.8898 37.525 26.8896C39.3396 28.8827 41.3766 30.6872 43.6672 32.0895C45.9545 33.503 48.5114 34.4588 51.1737 34.7957C53.8178 35.1333 56.5704 34.841 59.0001 33.7467C61.4385 32.6849 63.4096 30.6958 64.5406 28.3033C65.6835 25.9323 65.9944 23.0882 65.0168 20.65C64.7682 20.0497 64.4966 19.4248 64.0701 19.026C63.6578 18.6192 63.05 18.517 62.4903 18.6871C61.9306 18.8571 61.4691 19.2717 61.1812 19.8143C60.9005 20.3528 60.7919 20.9829 60.8079 21.6186C60.9584 24.2163 62.1454 26.7628 63.7233 28.8683C65.3243 30.9985 67.3756 32.7951 69.6471 34.1799C71.9258 35.5609 74.4755 36.5206 77.1005 36.9249C79.7239 37.2927 82.4565 37.1329 84.9249 36.1759C87.383 35.2341 89.5649 33.5578 91.1203 31.4253C92.7057 29.3135 93.6672 26.7161 93.6215 24.0883C93.6341 23.4368 93.5181 22.7724 93.4148 22.1477C93.286 21.6118 92.8697 21.1979 92.315 21.141C91.7739 21.0579 91.1728 21.2882 90.9033 21.7459C90.7483 21.9719 90.6893 22.2194 90.6699 22.5385C90.6434 22.8614 90.6391 23.1908 90.6531 23.5194C90.7575 26.152 91.8564 28.6912 93.3644 30.8729C93.7496 31.4161 94.1633 31.9435 94.5977 32.4408L96.001 33.8771C96.4536 34.3736 97.0183 34.752 97.5162 35.1954C97.7811 35.4036 98.0213 35.6348 98.3037 35.8239L99.1356 36.3812C101.36 37.8668 103.803 39.0542 106.397 39.7744C111.547 41.2455 117.158 41.3403 122.294 39.7178C124.849 38.9181 127.316 37.7564 129.472 36.1507C131.639 34.5665 133.56 32.605 134.877 30.2779C135.53 29.1127 136.044 27.8656 136.306 26.5524C136.566 25.2686 136.653 23.8568 136.406 22.6201C136.228 22.0278 135.744 21.5765 135.155 21.3894C134.565 21.2023 133.889 21.2968 133.368 21.6042C132.833 21.9195 132.536 22.5137 132.533 23.1319C132.524 23.7724 132.655 24.4471 132.828 25.0798C133.613 27.6433 135.608 29.658 137.753 31.2531C139.935 32.8466 142.266 34.2545 144.657 35.5356C149.432 38.0833 154.561 40.0053 159.851 41.2401C154.542 40.0719 149.39 38.2095 144.551 35.7156C142.139 34.4647 139.788 33.0869 137.562 31.4989C135.373 29.9093 133.295 27.8945 132.434 25.1953C132.241 24.5268 132.099 23.8489 132.108 23.1243C132.107 22.3966 132.484 21.6271 133.14 21.2445C133.779 20.8626 134.572 20.7595 135.272 20.9784C135.98 21.1935 136.597 21.7671 136.818 22.4856C137.331 25.2837 136.632 28.1004 135.286 30.5092C133.928 32.9149 131.973 34.9327 129.763 36.559C127.566 38.2067 125.046 39.4072 122.44 40.2346C117.204 41.9125 111.485 41.8407 106.21 40.3638C103.564 39.6349 101.048 38.4323 98.7597 36.9165L97.9015 36.3457C97.6192 36.1566 97.3639 35.915 97.0879 35.7036C96.5678 35.2539 95.988 34.8652 95.5203 34.3584L94.0679 32.8839C93.6105 32.362 93.1817 31.8243 92.7847 31.2596C91.2077 29.004 90.035 26.3655 89.9078 23.54C89.8891 23.1861 89.8998 22.8345 89.9216 22.4861C89.9323 22.1345 90.0232 21.6918 90.2577 21.3563C90.71 20.6385 91.5849 20.3125 92.3761 20.4252C93.1911 20.4967 93.93 21.1895 94.099 21.9833C94.2277 22.6874 94.3373 23.374 94.3381 24.0835C94.3955 26.901 93.3792 29.6689 91.7221 31.9045C90.0841 34.1575 87.7974 35.948 85.1845 36.9476C82.5644 37.9512 79.7 38.1094 76.9544 37.7065C74.2113 37.2743 71.5862 36.2629 69.2282 34.8231C66.8805 33.3684 64.7722 31.5194 63.1197 29.2963C61.4784 27.0763 60.2526 24.4767 60.0952 21.6306C60.0832 20.9179 60.1975 20.1632 60.5569 19.4969C60.891 18.8354 61.5177 18.2638 62.2656 18.0456C62.9944 17.8098 63.9085 17.9758 64.4777 18.5479C65.0493 19.0905 65.3121 19.7669 65.5845 20.4101C66.6333 23.0611 66.2675 26.0758 65.0601 28.5665C63.8647 31.0788 61.7665 33.1758 59.2051 34.2683C56.6564 35.4006 53.8085 35.6897 51.0795 35.3337C48.3434 34.9816 45.7041 33.9781 43.3858 32.5257C41.046 31.0852 38.9853 29.2379 37.158 27.2051C33.4782 23.1442 30.7665 18.3692 27.8483 13.8115C26.3872 11.5291 24.8864 9.25929 23.1386 7.20116C21.3947 5.15018 19.3308 3.31393 16.886 2.15586C14.4444 0.986679 11.7307 0.472764 9.03485 0.294572C6.33904 0.116373 3.6199 0.250059 0.912646 0.405186Z" fill="#C6C9DA"/>
</svg>
