<svg width="42" height="97" viewBox="0 0 42 97" fill="none" xmlns="http://www.w3.org/2000/svg">
<path d="M0.252617 0.776493C1.38633 2.07473 2.51162 3.39194 3.47725 4.82576C4.43814 6.25747 5.24254 7.82424 5.61158 9.5273C5.98538 11.2325 5.86262 13.007 5.51048 14.6968C5.15414 16.3961 4.59533 18.0396 4.017 19.6632C2.84399 22.9086 1.48012 26.0978 0.852822 29.4832C0.537587 31.1667 0.403199 32.8906 0.569807 34.589C0.729565 36.2901 1.22458 37.9525 2.07374 39.4312C2.91551 40.9009 4.11827 42.1844 5.60383 42.9968C7.07621 43.8262 8.83975 44.0634 10.4859 43.7202C12.1257 43.3912 13.6866 42.4593 14.5481 41.0296C14.7572 40.6736 14.9699 40.2965 15.0087 39.9275C15.057 39.5627 14.8759 39.2154 14.5753 38.9968C14.2747 38.7782 13.8877 38.7031 13.5024 38.765C13.1218 38.829 12.7608 39.0153 12.4447 39.267C11.1854 40.3385 10.3493 41.9158 9.88636 43.5223C9.41979 45.15 9.2949 46.8782 9.46308 48.5603C9.63601 50.2445 10.1263 51.9047 10.9269 53.3903C11.7455 54.8611 12.8734 56.1852 14.3042 57.0699C15.7234 57.9552 17.4091 58.4191 19.086 58.3906C20.7639 58.3854 22.449 57.8777 23.7636 56.8478C24.0988 56.6046 24.3911 56.2912 24.6682 55.9995C24.8905 55.729 24.9409 55.3594 24.7573 55.0564C24.5921 54.7502 24.245 54.5337 23.9098 54.5724C23.7358 54.5805 23.5877 54.6454 23.4186 54.7578C23.2447 54.8681 23.0761 54.9921 22.9148 55.125C21.6203 56.1865 20.754 57.7164 20.2258 59.3167C20.0979 59.72 19.9891 60.1318 19.9034 60.5426L19.7128 61.8042C19.6345 62.2239 19.6591 62.6551 19.6251 63.0774C19.621 63.2914 19.5958 63.5018 19.6081 63.7174L19.6443 64.3526C19.7435 66.0495 20.0772 67.7425 20.706 69.3337C21.9332 72.508 24.0348 75.3888 26.8247 77.3707C28.2092 78.3599 29.7433 79.1655 31.3831 79.6431C33.0165 80.135 34.7469 80.3574 36.431 80.1333C37.2718 80.0179 38.1009 79.8007 38.8672 79.4307C39.6176 79.0706 40.3664 78.5736 40.899 77.9749C41.1308 77.6574 41.1743 77.2393 41.0433 76.8688C40.9123 76.4983 40.6053 76.1917 40.2499 76.0453C39.885 75.8948 39.4702 75.972 39.1556 76.2073C38.8273 76.4479 38.5355 76.7729 38.2811 77.103C37.2824 78.4833 37.0252 80.2663 37.0384 81.9649C37.0664 83.6813 37.2457 85.4024 37.5125 87.1055C38.0502 90.5023 39.0408 93.8386 40.4414 96.9934C38.9997 93.8545 37.9701 90.5292 37.3807 87.1209C37.0907 85.4189 36.8882 83.6988 36.8407 81.9624C36.808 80.2438 37.033 78.4181 38.0717 76.9477C38.3366 76.5938 38.6258 76.262 38.9968 75.9892C39.3651 75.7096 39.8996 75.6059 40.3451 75.7922C40.7833 75.9696 41.1394 76.3321 41.2968 76.7711C41.4589 77.2123 41.4044 77.7447 41.1247 78.1319C39.9031 79.4643 38.2071 80.1886 36.4702 80.4291C34.7307 80.6626 32.9587 80.4445 31.2878 79.9473C29.6106 79.4645 28.0365 78.6468 26.6188 77.6429C23.7624 75.6314 21.6075 72.7044 20.3355 69.4646C19.6914 67.844 19.337 66.1077 19.2289 64.3671L19.1895 63.7134C19.1772 63.4978 19.2019 63.2759 19.2033 63.055C19.232 62.619 19.207 62.1762 19.2847 61.7449L19.4758 60.4437C19.5651 60.0119 19.6735 59.5885 19.8076 59.1709C20.3469 57.5074 21.2352 55.9021 22.6189 54.7551C22.7912 54.6101 22.9735 54.4808 23.1584 54.3584C23.3408 54.2291 23.6 54.1056 23.8599 54.0959C24.3971 54.0502 24.8976 54.3689 25.1435 54.8131C25.4195 55.2536 25.3514 55.8937 25.0137 56.2835C24.7061 56.6184 24.4 56.937 24.0406 57.2093C22.6343 58.3177 20.8417 58.8629 19.0736 58.8793C17.3039 58.9121 15.5202 58.4388 14.0124 57.4971C12.4999 56.5534 11.3224 55.1619 10.4748 53.6157C9.64296 52.0595 9.15002 50.3412 8.97652 48.5943C8.81463 46.8468 8.94424 45.0697 9.43818 43.3803C9.93476 41.6978 10.783 40.0804 12.1656 38.9103C12.5223 38.6312 12.9486 38.4 13.4241 38.3269C13.8874 38.2428 14.4173 38.3416 14.8144 38.6371C15.2131 38.9162 15.4792 39.4432 15.4073 39.951C15.3512 40.4486 15.1089 40.841 14.8872 41.2255C13.9451 42.7728 12.2767 43.7422 10.5515 44.0844C8.81995 44.4408 6.95308 44.1805 5.41792 43.3006C3.8675 42.4423 2.62991 41.1094 1.76491 39.5895C0.89517 38.0676 0.392738 36.3451 0.240869 34.6135C0.0747606 32.8755 0.221784 31.1231 0.552292 29.418C1.20118 25.9968 2.58297 22.7928 3.77549 19.5674C4.37281 17.9523 4.9485 16.3219 5.32225 14.6474C5.6939 12.9776 5.83408 11.2278 5.48455 9.54477C5.14187 7.85909 4.36277 6.28651 3.42033 4.85162C2.4779 3.41673 1.36841 2.0895 0.252617 0.776493Z" fill="#C6C9DA"/>
</svg>
